<?xml version="1.0" encoding="UTF-8" standalone="no"?>
<svg
   width="1500"
   height="1500"
   viewBox="0 0 1500 1500"
   fill="none"
   version="1.1"
   id="svg3"
   sodipodi:docname="logo.svg"
   inkscape:version="1.3.2 (091e20e, 2023-11-25, custom)"
   inkscape:export-filename="logo.pdf"
   inkscape:export-xdpi="96"
   inkscape:export-ydpi="96"
   xmlns:inkscape="http://www.inkscape.org/namespaces/inkscape"
   xmlns:sodipodi="http://sodipodi.sourceforge.net/DTD/sodipodi-0.dtd"
   xmlns="http://www.w3.org/2000/svg"
   xmlns:svg="http://www.w3.org/2000/svg">
  <defs
     id="defs3" />
  <sodipodi:namedview
     id="namedview3"
     pagecolor="#ffffff"
     bordercolor="#000000"
     borderopacity="0.25"
     inkscape:showpageshadow="2"
     inkscape:pageopacity="0.0"
     inkscape:pagecheckerboard="0"
     inkscape:deskcolor="#d1d1d1"
     inkscape:zoom="0.782"
     inkscape:cx="749.36061"
     inkscape:cy="750"
     inkscape:window-width="2560"
     inkscape:window-height="1369"
     inkscape:window-x="2552"
     inkscape:window-y="-8"
     inkscape:window-maximized="1"
     inkscape:current-layer="svg3" />
  <rect
     x="249"
     y="235"
     width="1001"
     height="1175"
     fill="#EBEBEB"
     id="rect2" />
  <path
     d="M996.664 712.615L1149.54 342.535L1302.43 712.615H996.664ZM502.336 712.615H196.581L349.458 342.535L502.336 712.615ZM1340.79 722.421L1172.95 316.117C1198.59 312.71 1224.22 309.031 1249.86 304.647C1260.93 302.749 1260.9 286.671 1249.83 284.773C1192.91 274.983 1141.96 269.663 1123.64 267.246C1082.37 260.586 1070.14 240.487 1047.95 223.332C982.763 173.059 920.094 171.564 842.888 170.767C829.11 170.62 816.247 163.997 808.13 152.86C803.507 146.509 795.468 136.704 780.211 116.234C777.361 112.4 773.876 109.496 770.182 107.033C773.342 102.75 775.278 97.5065 775.278 91.7751C775.278 77.5398 763.738 66 749.496 66C735.262 66 723.722 77.5398 723.722 91.7751C723.722 96.9566 725.287 101.766 727.92 105.802C723.467 108.419 719.323 111.742 715.985 116.234C700.76 136.665 692.721 146.463 688.089 152.822C679.965 163.959 667.086 170.596 653.293 170.743C576.544 171.549 515.672 172.959 451.23 221.233C426.889 239.318 414.536 260.066 375.015 267.052C363.7 268.78 309.674 274.279 249.112 284.773C238.006 286.694 237.929 302.718 249.042 304.631C274.7 309.061 300.358 312.756 326.023 316.179L158.206 722.421C156.177 727.315 156.735 732.892 159.678 737.299C162.621 741.698 167.569 744.347 172.867 744.347H173.169C178.845 836.822 255.424 910.121 349.327 910.121C443.229 910.121 519.815 836.822 525.492 744.347H526.05C531.347 744.347 536.288 741.698 539.239 737.299C542.182 732.892 542.732 727.315 540.71 722.421L375.325 322.066L376.727 322.197C391.163 323.142 405.854 321.756 420.259 318.526C456.395 310.401 470.521 295.345 492.191 283.882C539.092 258.882 574.159 261.027 625.134 262.855C635.612 263.227 643.992 271.831 643.992 282.318C643.992 289.164 649.545 294.718 656.391 294.718H675.187C686.773 294.718 696.833 302.006 701.147 312.764C703.145 317.744 705.933 322.329 709.348 326.379C718.502 337.222 724.582 350.249 724.582 364.446C724.582 459.144 724.582 787.138 724.582 887.025C724.582 901.624 720.253 916.255 710.456 927.082C702.44 935.943 697.53 947.622 697.53 960.533C697.53 969.742 700.047 978.323 704.407 985.704C711.137 997.12 714.537 1010.09 711.889 1023.08C695.424 1103.88 684.643 1213.12 684.643 1234.71L684.651 1236.79C684.697 1253.53 671.137 1267.14 654.385 1267.14H639.175C571.844 1267.14 515.726 1315.61 503.56 1379.47H447.675V1435H1050.5V1379.47H995.75C983.591 1315.61 927.474 1267.14 860.135 1267.14H841.811C825.068 1267.14 811.499 1253.53 811.546 1236.79L811.553 1234.71C811.553 1213.08 800.742 1103.53 784.238 1022.69C781.597 1009.78 784.951 996.873 791.596 985.48C795.871 978.153 798.341 969.657 798.341 960.533C798.341 949.303 794.639 938.971 788.413 930.622C780.227 919.655 774.712 906.938 774.712 893.26V360.589C774.712 347.446 779.917 335.155 787.925 324.73C790.558 321.306 792.757 317.534 794.446 313.492C799.023 302.525 808.889 294.718 820.777 294.718H839.806C846.652 294.718 852.205 289.164 852.205 282.318V282.302C852.205 271.823 860.561 263.227 871.039 262.839C921.147 261.004 958.77 258.765 1006.24 285.168C1025.12 295.949 1044.39 312.617 1079.67 319.502C1094.12 322.445 1108.85 323.405 1123.23 322.151L1123.67 322.097L958.297 722.421C956.261 727.315 956.826 732.892 959.769 737.299C962.704 741.698 967.653 744.347 972.95 744.347H973.26C978.937 836.822 1055.52 910.121 1149.42 910.121C1243.33 910.121 1319.91 836.822 1325.58 744.347H1326.14C1331.44 744.347 1336.38 741.698 1339.32 737.299C1342.27 732.892 1342.82 727.315 1340.79 722.421Z"
     fill="#D6A100"
     id="path2" />
</svg>
