<?xml version="1.0" encoding="UTF-8" standalone="no"?>
<svg
   width="1511.058"
   height="307.40237"
   viewBox="0 0 1511.0579 307.40238"
   fill="none"
   version="1.1"
   id="svg3"
   sodipodi:docname="logo-full.svg"
   inkscape:version="1.3.2 (091e20e, 2023-11-25, custom)"
   inkscape:export-filename="logo-full.pdf"
   inkscape:export-xdpi="150"
   inkscape:export-ydpi="150"
   xml:space="preserve"
   xmlns:inkscape="http://www.inkscape.org/namespaces/inkscape"
   xmlns:sodipodi="http://sodipodi.sourceforge.net/DTD/sodipodi-0.dtd"
   xmlns="http://www.w3.org/2000/svg"
   xmlns:svg="http://www.w3.org/2000/svg"><defs
     id="defs3" /><sodipodi:namedview
     id="namedview3"
     pagecolor="#ffffff"
     bordercolor="#000000"
     borderopacity="0.25"
     inkscape:showpageshadow="2"
     inkscape:pageopacity="0.0"
     inkscape:pagecheckerboard="0"
     inkscape:deskcolor="#d1d1d1"
     inkscape:zoom="0.782"
     inkscape:cx="749.36061"
     inkscape:cy="159.20716"
     inkscape:window-width="2560"
     inkscape:window-height="1369"
     inkscape:window-x="2552"
     inkscape:window-y="-8"
     inkscape:window-maximized="1"
     inkscape:current-layer="svg3"
     inkscape:export-bgcolor="#ffffff00"
     showguides="true" /><g
     id="g10"
     transform="matrix(0.88649548,0,0,0.88649548,-45.033587,-423.19088)"><rect
       x="93.6931"
       y="539.73645"
       width="215.57784"
       height="253.05089"
       fill="#ebebeb"
       id="rect2"
       style="stroke-width:0.215362" /><path
       d="m 254.71185,642.59674 32.92376,-79.70133 32.92677,79.70133 z m -106.45969,0 H 82.404009 l 32.923971,-79.70133 z m 180.57152,2.11187 -36.14644,-87.50264 c 5.52189,-0.73374 11.04163,-1.52606 16.56353,-2.47021 2.38406,-0.40875 2.3776,-3.87135 -0.007,-4.28011 -12.25842,-2.1084 -23.23114,-3.25413 -27.17658,-3.77466 -8.88801,-1.43431 -11.52189,-5.76288 -16.30078,-9.45743 -14.03884,-10.82691 -27.53539,-11.14888 -44.16266,-11.32052 -2.96727,-0.0317 -5.73747,-1.45801 -7.48557,-3.8565 -0.99562,-1.36777 -2.72692,-3.47939 -6.0127,-7.88787 -0.61379,-0.8257 -1.36432,-1.4511 -2.15987,-1.98155 0.68054,-0.92239 1.09748,-2.05164 1.09748,-3.28598 0,-3.06574 -2.48528,-5.55098 -5.55247,-5.55098 -3.06547,0 -5.55075,2.48524 -5.55075,5.55098 0,1.1159 0.33704,2.15167 0.90409,3.02087 -0.95901,0.56361 -1.85148,1.27926 -2.57035,2.24666 -3.2789,4.40007 -5.01019,6.5102 -6.00776,7.87969 -1.7496,2.39849 -4.52325,3.82785 -7.49375,3.85951 -16.52885,0.17358 -29.63839,0.47724 -43.51678,10.87365 -5.24214,3.89483 -7.90252,8.36317 -16.41386,9.86769 -2.43682,0.37215 -14.07199,1.55643 -27.114771,3.81644 -2.391817,0.41371 -2.408398,3.86468 -0.01507,4.27667 5.52577,0.95405 11.051541,1.74982 16.578821,2.487 l -36.1411,87.48929 c -0.43697,1.05398 -0.316799,2.25503 0.317014,3.20416 0.63381,0.94736 1.699426,1.51786 2.840415,1.51786 h 0.06504 c 1.222396,19.91566 17.714638,35.70148 37.937821,35.70148 20.22296,0 36.71671,-15.78582 37.93932,-35.70148 h 0.12017 c 1.14078,0 2.20488,-0.5705 2.84041,-1.51786 0.63382,-0.94913 0.75227,-2.15018 0.31681,-3.20416 l -35.61772,-86.22145 0.30193,0.0282 c 3.10898,0.20351 6.27287,-0.095 9.37516,-0.7906 7.78234,-1.74982 10.82455,-4.99232 15.49145,-7.46101 10.10072,-5.38406 17.65284,-4.92211 28.63094,-4.52843 2.25657,0.0801 4.06131,1.93309 4.06131,4.1916 0,1.47437 1.1959,2.67049 2.67027,2.67049 h 4.04795 c 2.49519,0 4.66174,1.56957 5.59081,3.88643 0.4303,1.07251 1.03073,2.05994 1.76619,2.93217 1.97143,2.33517 3.28083,5.14069 3.28083,8.1982 0,20.39439 0,91.03199 0,112.5439 0,3.1441 -0.9323,6.29505 -3.04221,8.6268 -1.72635,1.90829 -2.78378,4.42353 -2.78378,7.20406 0,1.98329 0.54207,3.83132 1.48105,5.42091 1.4494,2.45857 2.18163,5.2518 1.61135,8.04938 -3.54595,17.4013 -5.86777,40.92749 -5.86777,45.57714 l 10e-4,0.44799 c 0.01,3.60516 -2.91041,6.53622 -6.51817,6.53622 h -3.27566 c -14.50057,0 -26.58628,10.43863 -29.20638,24.19169 h -12.03506 v 11.95908 H 266.30571 V 786.2123 h -11.79102 c -2.61859,-13.75306 -14.70408,-24.19169 -29.20638,-24.19169 h -3.9463 c -3.60581,0 -6.52807,-2.93106 -6.51795,-6.53622 l 10e-4,-0.44799 c 0,-4.65828 -2.32829,-28.25122 -5.88263,-45.66114 -0.56877,-2.78032 0.15355,-5.56002 1.58464,-8.01363 0.92068,-1.57795 1.45262,-3.40769 1.45262,-5.37266 0,-2.41852 -0.79727,-4.64362 -2.13812,-6.4417 -1.76295,-2.36185 -2.95068,-5.10065 -2.95068,-8.04636 V 566.78357 c 0,-2.83051 1.12096,-5.47753 2.84558,-7.72268 0.56705,-0.7374 1.04064,-1.54975 1.40439,-2.42025 0.98571,-2.36188 3.11048,-4.04321 5.6707,-4.04321 h 4.09814 c 1.47437,0 2.67028,-1.19612 2.67028,-2.6705 v -0.003 c 0,-2.25678 1.79956,-4.10804 4.05614,-4.1916 10.79138,-0.39519 18.89396,-0.87738 29.11721,4.80883 4.06605,2.32183 8.21608,5.91148 15.81407,7.39425 3.11198,0.63382 6.28427,0.84056 9.38118,0.5705 l 0.0948,-0.0116 -35.61513,86.21477 c -0.43848,1.05398 -0.31679,2.25503 0.317,3.20416 0.6321,0.94735 1.69793,1.51785 2.8387,1.51785 h 0.0668 c 1.22261,19.91566 17.71572,35.70149 37.93825,35.70149 20.22469,0 36.71716,-15.78583 37.93826,-35.70149 h 0.12061 c 1.14141,0 2.2053,-0.5705 2.83847,-1.51785 0.63532,-0.94913 0.75377,-2.15018 0.31658,-3.20416 z"
       fill="#d6a100"
       id="path2"
       style="stroke-width:0.215362" /></g><path
     style="font-weight:900;font-size:92.6442px;font-family:'Prima Serif';-inkscape-font-specification:'Prima Serif Heavy';letter-spacing:-1.24077px;fill:#d6a100;stroke-width:2.64957"
     d="m 390.69194,71.964751 h -20.10379 v 5.46601 h 8.06004 L 360.30464,122.17791 342.05373,77.430761 h 6.57774 v -5.46601 h -31.68432 v 5.46601 h 6.39245 l 25.47716,62.071619 h 10.74672 l 25.47716,-62.071619 h 5.6513 z m 43.59908,45.766239 c -0.55587,-18.158259 -9.26443,-27.607969 -25.10658,-27.607969 -16.30538,0 -25.84774,9.44971 -25.84774,25.291859 0,16.30538 9.17178,25.38452 25.84774,25.38452 13.71134,0 21.30816,-4.8175 23.9022,-15.84216 h -7.50418 c -1.20437,6.94831 -5.55865,10.74672 -12.50697,10.74672 -8.61591,0 -11.85846,-5.55865 -11.85846,-17.60239 v -0.37058 z m -17.6024,-5.37336 h -15.47159 v -0.8338 c 0,-11.20995 1.94553,-16.305379 7.68947,-16.305379 6.02188,0 7.78212,5.373359 7.78212,17.139179 z m 70.28052,-21.493459 c -3.24255,-0.46322 -6.02187,-0.74115 -8.06005,-0.74115 -7.41153,0 -12.50696,3.1499 -15.65687,9.82028 v -8.52326 h -23.34633 v 5.466 h 7.31889 v 37.150329 h -6.85567 v 5.46601 h 31.59167 v -5.46601 h -8.70856 v -18.99206 c 0,-11.3026 4.53957,-17.417109 11.3026,-17.417109 4.53956,0 6.94831,2.408749 7.31889,7.596819 h 5.09543 z m 32.85234,33.537199 c 0,5.37337 -3.3352,8.89385 -8.24534,8.89385 -4.72485,0 -7.04096,-2.96462 -7.04096,-9.07914 0,-6.11451 3.33519,-9.44971 9.26442,-9.44971 h 6.02188 z m 16.02744,-14.45249 c 0,-13.803989 -7.87475,-19.825859 -24.92129,-19.825859 -6.57774,0 -12.69225,0.92644 -18.62148,3.05726 v 10.376149 h 5.09543 c 1.48231,-6.021879 4.72485,-8.430629 11.1173,-8.430629 7.68947,0 11.3026,3.61313 11.3026,11.395239 v 2.87197 h -8.43063 c -15.28629,0 -22.79047,5.37336 -22.79047,16.12009 0,9.82029 5.46601,15.2863 15.28629,15.2863 6.76303,0 11.76582,-2.40875 15.93481,-7.41154 v 6.11452 h 22.88311 v -5.46601 h -6.85567 z M 647.783,71.964751 h -20.10379 v 5.46601 h 8.06005 L 617.3957,122.17791 599.14479,77.430761 h 6.57774 v -5.46601 h -31.68431 v 5.46601 h 6.39245 l 25.47715,62.071619 h 10.74673 l 25.47716,-62.071619 h 5.65129 z m 21.73515,62.071619 V 91.420041 h -22.88311 v 5.466 h 6.85567 v 37.150329 h -6.85567 v 5.46601 h 29.73879 v -5.46601 z M 652.0084,77.801341 c 0,4.8175 3.79841,8.61591 8.70856,8.61591 4.72485,0 8.61591,-3.79841 8.61591,-8.61591 0,-4.91015 -3.89106,-8.70856 -8.61591,-8.70856 -4.91015,0 -8.70856,3.79841 -8.70856,8.70856 z m 80.19342,39.929649 c -0.55587,-18.158259 -9.26442,-27.607969 -25.10658,-27.607969 -16.30538,0 -25.84774,9.44971 -25.84774,25.291859 0,16.30538 9.17178,25.38452 25.84774,25.38452 13.71134,0 21.30816,-4.8175 23.9022,-15.84216 h -7.50418 c -1.20437,6.94831 -5.55865,10.74672 -12.50697,10.74672 -8.61591,0 -11.85845,-5.55865 -11.85845,-17.60239 v -0.37058 z m -17.6024,-5.37336 h -15.47158 v -0.8338 c 0,-11.20995 1.94552,-16.305379 7.68946,-16.305379 6.02188,0 7.78212,5.373359 7.78212,17.139179 z m 46.5636,21.67874 V 91.420041 H 738.2799 v 5.466 h 6.85567 v 37.150329 h -6.85567 v 5.46601 h 29.73879 v -5.46601 z M 743.65327,77.801341 c 0,4.8175 3.79841,8.61591 8.70855,8.61591 4.72486,0 8.61591,-3.79841 8.61591,-8.61591 0,-4.91015 -3.89105,-8.70856 -8.61591,-8.70856 -4.91014,0 -8.70855,3.79841 -8.70855,8.70856 z m 75.19063,13.06283 c -3.24255,-0.46322 -6.02188,-0.74115 -8.06005,-0.74115 -7.41154,0 -12.50697,3.1499 -15.65687,9.82028 v -8.52326 h -23.34634 v 5.466 h 7.31889 v 37.150329 h -6.85567 v 5.46601 h 31.59168 v -5.46601 h -8.70856 v -18.99206 c 0,-11.3026 4.53957,-17.417109 11.30259,-17.417109 4.53957,0 6.94832,2.408749 7.31889,7.596819 h 5.09544 z m 32.85233,33.537199 c 0,5.37337 -3.33519,8.89385 -8.24533,8.89385 -4.72486,0 -7.04096,-2.96462 -7.04096,-9.07914 0,-6.11451 3.33519,-9.44971 9.26442,-9.44971 h 6.02187 z m 16.02745,-14.45249 c 0,-13.803989 -7.87476,-19.825859 -24.92129,-19.825859 -6.57774,0 -12.69226,0.92644 -18.62149,3.05726 v 10.376149 h 5.09543 c 1.48231,-6.021879 4.72486,-8.430629 11.11731,-8.430629 7.68947,0 11.30259,3.61313 11.30259,11.395239 v 2.87197 h -8.43062 c -15.28629,0 -22.79047,5.37336 -22.79047,16.12009 0,9.82029 5.466,15.2863 15.28629,15.2863 6.76303,0 11.76581,-2.40875 15.9348,-7.41154 v 6.11452 h 22.88312 v -5.46601 h -6.85567 z"
     id="text1"
     aria-label="Vera Vieira" /><path
     d="m 332.25709,225.5322 7.43679,-18.20056 7.30632,18.20056 z m -14.02553,17.41775 h 14.156 v -3.84887 h -5.67545 l 3.97934,-9.72001 h 17.87439 l 3.9141,9.72001 h -4.63169 v 3.84887 h 22.24514 v -3.84887 h -4.50122 l -17.93962,-43.70745 h -7.6325 l -17.87439,43.70745 h -3.9141 z m 89.5421,-3.84887 v -45.72973 h -16.11305 v 3.84886 h 4.82739 v 16.17828 c -1.89181,-3.52269 -5.08833,-5.2188 -9.85048,-5.2188 -9.52431,0 -15.4607,6.58874 -15.4607,17.80916 0,11.22042 5.93639,17.87439 15.4607,17.87439 4.76215,0 7.95867,-1.69611 9.85048,-5.2188 v 4.30551 h 16.11305 v -3.84887 z M 396.488,227.68496 c 0,7.63249 -1.76134,11.22042 -6.39303,11.22042 -5.02309,0 -6.32779,-3.97934 -6.32779,-12.91653 0,-8.9372 1.3047,-12.8513 6.32779,-12.8513 4.63169,0 6.39303,3.58793 6.39303,11.22042 z m 31.28714,15.26499 h 9.06766 l 12.00324,-30.0081 h 3.9141 v -3.84887 h -12.72082 v 3.84887 h 4.43598 l -8.54579,21.39708 -8.54578,-21.39708 h 4.1098 v -3.84887 H 412.0535 v 3.84887 h 3.7184 z m 44.2689,0.91329 c 12.00324,0 19.11386,-6.78444 19.11386,-17.87439 0,-11.08995 -7.11062,-17.80916 -19.11386,-17.80916 -12.00324,0 -19.11386,6.71921 -19.11386,17.80916 0,11.08995 7.11062,17.87439 19.11386,17.87439 z m 0,-3.58793 c -5.2188,0 -6.5235,-4.43598 -6.5235,-14.28646 0,-9.85049 1.3047,-14.22123 6.5235,-14.22123 5.2188,0 6.45826,4.37074 6.45826,14.22123 0,9.85048 -1.23946,14.28646 -6.45826,14.28646 z m 57.6421,-7.89343 h -5.28404 c -0.58711,5.08833 -3.45745,7.89343 -7.95867,7.89343 -6.19732,0 -8.28484,-4.56645 -8.28484,-14.28646 0,-9.85049 2.02228,-14.22123 8.67625,-14.22123 4.89263,0 7.50203,2.73987 8.15438,8.48055 h 3.58792 v -9.39384 c -4.89262,-1.76135 -9.65478,-2.67464 -14.48217,-2.67464 -11.67706,0 -18.52674,6.65397 -18.52674,17.80916 0,11.28565 6.84968,17.87439 18.98339,17.87439 8.54578,0 13.50364,-3.7184 15.13452,-11.48136 z m 26.72067,-0.0652 c 0,3.78363 -2.34846,6.26256 -5.80591,6.26256 -3.32699,0 -4.95786,-2.08752 -4.95786,-6.39303 0,-4.30551 2.34846,-6.65397 6.5235,-6.65397 h 4.24027 z m 11.28566,-10.17666 c 0,-9.72001 -5.54498,-13.96029 -17.54822,-13.96029 -4.63168,0 -8.93719,0.65235 -13.11223,2.15276 v 7.30632 h 3.58792 c 1.04376,-4.24028 3.32699,-5.93639 7.8282,-5.93639 5.41451,0 7.95867,2.54417 7.95867,8.02391 v 2.02228 h -5.93638 c -10.76378,0 -16.04781,3.78363 -16.04781,11.35089 0,6.91491 3.84886,10.76378 10.76377,10.76378 4.76216,0 8.28485,-1.69611 11.22042,-5.2188 v 4.30551 h 16.11305 v -3.84887 h -4.82739 z m 42.2467,10.2419 h -5.28403 c -0.58712,5.08833 -3.45746,7.89343 -7.95867,7.89343 -6.19733,0 -8.28485,-4.56645 -8.28485,-14.28646 0,-9.85049 2.02229,-14.22123 8.67626,-14.22123 4.89262,0 7.50202,2.73987 8.15437,8.48055 h 3.58793 v -9.39384 c -4.89263,-1.76135 -9.65478,-2.67464 -14.48217,-2.67464 -11.67707,0 -18.52674,6.65397 -18.52674,17.80916 0,11.28565 6.84967,17.87439 18.98338,17.87439 8.54579,0 13.50365,-3.7184 15.13452,-11.48136 z m 20.39287,6.7192 v -30.0081 h -16.11305 v 3.84887 h 4.82739 v 26.15923 h -4.82739 v 3.84887 h 20.94044 v -3.84887 z m -12.32942,-39.59768 c 0,3.39222 2.67464,6.06685 6.13209,6.06685 3.32699,0 6.06686,-2.67463 6.06686,-6.06685 0,-3.45746 -2.73987,-6.13209 -6.06686,-6.13209 -3.45745,0 -6.13209,2.67463 -6.13209,6.13209 z m 42.57277,32.8132 c 0,3.78363 -2.34846,6.26256 -5.80591,6.26256 -3.32699,0 -4.95786,-2.08752 -4.95786,-6.39303 0,-4.30551 2.34846,-6.65397 6.5235,-6.65397 h 4.24027 z m 11.28566,-10.17666 c 0,-9.72001 -5.54498,-13.96029 -17.54822,-13.96029 -4.63168,0 -8.93719,0.65235 -13.11223,2.15276 v 7.30632 h 3.58792 c 1.04376,-4.24028 3.32699,-5.93639 7.8282,-5.93639 5.41451,0 7.95867,2.54417 7.95867,8.02391 v 2.02228 h -5.93638 c -10.76378,0 -16.04781,3.78363 -16.04781,11.35089 0,6.91491 3.84886,10.76378 10.76377,10.76378 4.76216,0 8.28485,-1.69611 11.22042,-5.2188 v 4.30551 h 16.11305 v -3.84887 h -4.82739 z m 65.83611,5.47974 c -0.39141,-12.78606 -6.5235,-19.44003 -17.67868,-19.44003 -11.48136,0 -18.20057,6.65397 -18.20057,17.80916 0,11.48136 6.45827,17.87439 18.20057,17.87439 9.65478,0 15.00405,-3.39222 16.83063,-11.15519 h -5.28404 c -0.84805,4.89263 -3.9141,7.56726 -8.80672,7.56726 -6.06686,0 -8.35008,-3.9141 -8.35008,-12.39465 v -0.26094 z m -12.39465,-3.78363 h -10.89424 v -0.58711 c 0,-7.89344 1.36993,-11.48136 5.4145,-11.48136 4.24028,0 5.47974,3.78363 5.47974,12.06847 z m 84.88469,5.54498 h -6.3278 c -1.82658,7.11061 -5.80591,10.6333 -12.13371,10.6333 -9.39384,0 -13.76458,-6.7192 -13.76458,-20.80996 0,-14.02553 4.37074,-20.80997 13.69935,-20.80997 7.17585,0 11.54659,3.97934 13.17747,11.93801 h 4.04457 v -11.67707 c -6.58874,-2.67463 -12.65559,-4.1098 -18.52674,-4.1098 -16.11305,0 -26.02877,9.52431 -26.02877,24.65883 0,15.13452 9.91572,24.65883 26.02877,24.65883 10.95948,0 17.35251,-4.69692 19.83144,-14.48217 z m 24.24176,14.48217 c 12.00324,0 19.11385,-6.78444 19.11385,-17.87439 0,-11.08995 -7.11061,-17.80916 -19.11385,-17.80916 -12.00324,0 -19.11386,6.71921 -19.11386,17.80916 0,11.08995 7.11062,17.87439 19.11386,17.87439 z m 0,-3.58793 c -5.2188,0 -6.5235,-4.43598 -6.5235,-14.28646 0,-9.85049 1.3047,-14.22123 6.5235,-14.22123 5.2188,0 6.45826,4.37074 6.45826,14.22123 0,9.85048 -1.23946,14.28646 -6.45826,14.28646 z m 23.06756,2.67464 h 20.22285 v -3.84887 h -4.10981 v -15.19975 c 0,-7.04538 1.89182,-10.4376 6.58874,-10.4376 3.84886,0 4.89262,2.28322 4.89262,7.63249 v 18.00486 h -4.1098 v 3.84887 h 20.22285 v -3.84887 h -4.82739 V 221.4224 c 0,-8.74149 -3.97934,-13.24271 -11.5466,-13.24271 -5.08833,0 -8.41531,1.50041 -11.22042,5.67545 v -4.76216 h -16.11304 v 3.84887 h 4.82739 v 26.15923 h -4.82739 z m 47.40018,-0.97853 c 5.15356,1.23947 9.85048,1.89182 14.15599,1.89182 11.35089,0 16.83063,-3.39222 16.83063,-11.15519 0,-6.5235 -3.78363,-9.06766 -11.7423,-11.08995 l -4.63168,-1.17423 c -3.06605,-0.78282 -4.69692,-1.76134 -4.69692,-4.37074 0,-2.80511 2.34846,-4.30551 6.98014,-4.30551 5.41451,0 8.35008,2.28322 8.74149,6.98014 h 3.58793 v -8.54578 c -5.15357,-1.3047 -9.65478,-2.02229 -13.89506,-2.02229 -10.50283,0 -15.59116,3.45746 -15.59116,10.89425 0,5.61021 3.13128,8.61102 9.98095,10.30713 l 4.63169,1.17423 c 3.71839,0.91329 5.67544,1.89181 5.67544,5.08833 0,2.93557 -2.41369,4.63168 -7.11061,4.63168 -5.47974,0 -8.74149,-2.73987 -9.32861,-7.76296 h -3.58792 z m 73.168,-32.87844 h -15.39546 v 3.84887 h 4.1098 v 15.13452 c 0,7.04538 -1.89181,10.50283 -6.58873,10.50283 -4.63169,0 -4.89263,-3.13128 -4.89263,-9.72001 v -19.76621 h -16.11304 v 3.84887 h 4.82739 v 17.67868 c 0,8.74149 3.97933,13.24271 11.54659,13.24271 5.08833,0 8.41532,-1.50041 11.22042,-5.67545 v 4.76216 h 16.11305 v -3.84887 h -4.82739 z m 24.5027,30.0081 v -45.72973 h -16.11306 v 3.84886 h 4.82739 v 41.88087 h -4.82739 v 3.84887 h 20.94046 v -3.84887 z m 12.0428,-26.15923 v 20.74473 c 0,8.08914 3.0661,10.17666 11.938,10.17666 7.8935,0 11.0247,-2.15276 11.4162,-9.19814 h -4.7622 c -0.065,3.78363 -1.3047,5.61021 -4.0446,5.61021 -3.1965,0 -3.2617,-2.15275 -3.2617,-6.58873 v -20.74473 h 9.3938 v -3.84887 h -9.3938 v -10.50283 h -11.2857 v 10.50283 h -4.8926 v 3.84887 z m 44.5951,30.92139 c 12.0032,0 19.1138,-6.78444 19.1138,-17.87439 0,-11.08995 -7.1106,-17.80916 -19.1138,-17.80916 -12.0033,0 -19.1139,6.71921 -19.1139,17.80916 0,11.08995 7.1106,17.87439 19.1139,17.87439 z m 0,-3.58793 c -5.2188,0 -6.5235,-4.43598 -6.5235,-14.28646 0,-9.85049 1.3047,-14.22123 6.5235,-14.22123 5.2188,0 6.4582,4.37074 6.4582,14.22123 0,9.85048 -1.2394,14.28646 -6.4582,14.28646 z m 55.8808,-31.57374 c -2.2833,-0.32617 -4.2403,-0.52188 -5.6755,-0.52188 -5.2188,0 -8.8067,2.21799 -11.0247,6.91491 v -6.00162 h -16.4392 v 3.84887 h 5.1535 v 26.15923 h -4.8274 v 3.84887 h 22.2452 v -3.84887 h -6.1321 v -13.37317 c 0,-7.95867 3.1965,-12.26418 7.9587,-12.26418 3.1965,0 4.8926,1.69611 5.1535,5.34927 h 3.588 z m 16.805,30.39951 v -30.0081 h -16.1131 v 3.84887 h 4.8274 v 26.15923 h -4.8274 v 3.84887 h 20.9405 v -3.84887 z m -12.3294,-39.59764 c 0,3.39222 2.6746,6.06685 6.1321,6.06685 3.3269,0 6.0668,-2.67463 6.0668,-6.06685 0,-3.45746 -2.7399,-6.13209 -6.0668,-6.13209 -3.4575,0 -6.1321,2.67463 -6.1321,6.13209 z m 42.5728,32.8132 c 0,3.78363 -2.3485,6.26256 -5.806,6.26256 -3.3269,0 -4.9578,-2.08752 -4.9578,-6.39303 0,-4.30551 2.3484,-6.65397 6.5235,-6.65397 h 4.2403 z m 11.2856,-10.17666 c 0,-9.72001 -5.545,-13.96029 -17.5482,-13.96029 -4.6317,0 -8.9372,0.65235 -13.1122,2.15276 v 7.30632 h 3.5879 c 1.0438,-4.24028 3.327,-5.93639 7.8282,-5.93639 5.4145,0 7.9587,2.54417 7.9587,8.02391 v 2.02228 h -5.9364 c -10.7638,0 -16.0478,3.78363 -16.0478,11.35089 0,6.91491 3.8488,10.76378 10.7637,10.76378 4.7622,0 8.2849,-1.69611 11.2205,-5.2188 v 4.30551 h 16.113 v -3.84887 h -4.8274 z m 22.5201,32.22609 c 3.6531,1.43517 7.241,2.15276 10.7637,2.15276 11.2857,0 16.3088,-4.50122 16.3088,-14.87358 V 199.2425 h 6.0668 v -3.84887 h -25.3111 v 3.84887 h 6.9149 v 42.14181 c 0,7.69773 -0.9786,11.28565 -5.545,11.28565 -3.2618,0 -4.8274,-1.82658 -5.0883,-5.80591 h -4.1098 z m 75.1251,-45.27309 h -15.3955 v 3.84887 h 4.1098 v 15.13452 c 0,7.04538 -1.8918,10.50283 -6.5887,10.50283 -4.6317,0 -4.8927,-3.13128 -4.8927,-9.72001 v -19.76621 h -16.113 v 3.84887 h 4.8274 v 17.67868 c 0,8.74149 3.9793,13.24271 11.5466,13.24271 5.0883,0 8.4153,-1.50041 11.2204,-5.67545 v 4.76216 h 16.1131 v -3.84887 h -4.8274 z m 41.2028,-0.39141 c -2.2832,-0.32617 -4.2403,-0.52188 -5.6754,-0.52188 -5.2188,0 -8.8068,2.21799 -11.0247,6.91491 v -6.00162 h -16.4393 v 3.84887 h 5.1536 v 26.15923 h -4.8274 v 3.84887 H 1301.7 v -3.84887 h -6.132 v -13.37317 c 0,-7.95867 3.1965,-12.26418 7.9586,-12.26418 3.1965,0 4.8927,1.69611 5.1536,5.34927 h 3.5879 z m 16.805,30.39951 v -30.0081 h -16.113 v 3.84887 h 4.8274 v 26.15923 h -4.8274 v 3.84887 h 20.9404 v -3.84887 z m -3.0008,-48.33913 -8.2196,12.00324 h 5.2188 l 11.8728,-12.00324 z m 47.8568,48.33913 v -45.72973 h -16.113 v 3.84886 h 4.8274 v 16.17828 c -1.8919,-3.52269 -5.0884,-5.2188 -9.8505,-5.2188 -9.5243,0 -15.4607,6.58874 -15.4607,17.80916 0,11.22042 5.9364,17.87439 15.4607,17.87439 4.7621,0 7.9586,-1.69611 9.8505,-5.2188 v 4.30551 h 16.113 v -3.84887 z m -11.2856,-11.41612 c 0,7.63249 -1.7614,11.22042 -6.3931,11.22042 -5.0231,0 -6.3278,-3.97934 -6.3278,-12.91653 0,-8.9372 1.3047,-12.8513 6.3278,-12.8513 4.6317,0 6.3931,3.58793 6.3931,11.22042 z m 35.0708,11.41612 v -30.0081 h -16.1131 v 3.84887 h 4.8274 v 26.15923 h -4.8274 v 3.84887 h 20.9404 v -3.84887 z m -12.3295,-39.59764 c 0,3.39222 2.6747,6.06685 6.1321,6.06685 3.327,0 6.0669,-2.67463 6.0669,-6.06685 0,-3.45746 -2.7399,-6.13209 -6.0669,-6.13209 -3.4574,0 -6.1321,2.67463 -6.1321,6.13209 z m 54.7065,32.87844 h -5.284 c -0.5872,5.08833 -3.4575,7.89343 -7.9587,7.89343 -6.1973,0 -8.2849,-4.56645 -8.2849,-14.28646 0,-9.85049 2.0223,-14.22123 8.6763,-14.22123 4.8926,0 7.502,2.73987 8.1544,8.48055 h 3.5879 v -9.39384 c -4.8926,-1.76135 -9.6548,-2.67464 -14.4822,-2.67464 -11.677,0 -18.5267,6.65397 -18.5267,17.80916 0,11.28565 6.8497,17.87439 18.9834,17.87439 8.5458,0 13.5036,-3.7184 15.1345,-11.48136 z m 26.7207,-0.0652 c 0,3.78363 -2.3485,6.26256 -5.806,6.26256 -3.3269,0 -4.9578,-2.08752 -4.9578,-6.39303 0,-4.30551 2.3484,-6.65397 6.5235,-6.65397 h 4.2403 z m 11.2856,-10.17666 c 0,-9.72001 -5.545,-13.96029 -17.5482,-13.96029 -4.6317,0 -8.9372,0.65235 -13.1122,2.15276 v 7.30632 h 3.5879 c 1.0437,-4.24028 3.327,-5.93639 7.8282,-5.93639 5.4145,0 7.9587,2.54417 7.9587,8.02391 v 2.02228 h -5.9364 c -10.7638,0 -16.0478,3.78363 -16.0478,11.35089 0,6.91491 3.8488,10.76378 10.7637,10.76378 4.7622,0 8.2849,-1.69611 11.2205,-5.2188 v 4.30551 h 16.113 v -3.84887 h -4.8274 z"
     id="text2"
     style="font-weight:900;font-size:65.235px;font-family:'Prima Serif';-inkscape-font-specification:'Prima Serif Heavy';letter-spacing:-0.873682px;fill:#000000;stroke-width:1.86569"
     aria-label="Advocacia e Consultoria Jurídica" /></svg>
